<svg id="Layer_1" data-name="Layer 1" xmlns="http://www.w3.org/2000/svg" viewBox="0 0 512 512"><defs><style>.cls-1{fill:#575756;}</style></defs><path class="cls-1" d="M438.65,146.24c0,.32,0,.63,0,.94,0,97.83,0,176.84,0,248.65,0,17.09-11.09,28.13-28.27,28.14l-152.6,0-156.12,0c-17.19,0-28.29-11-28.29-28.12,0-89.3,0-171.12,0-250.12,0-17.54,10.93-28.44,28.49-28.44,76.5,0,155,0,239.85,0a10.27,10.27,0,0,0,1.21-.1c1.83-.21,5.64-.64,6.87,2.91s-1.69,5.58-3.08,6.59a6.93,6.93,0,0,0-1.11.87c-2.93,3.3-6.7,3.29-9.7,3.28H102.7c-11.21,0-15.8,4.64-15.83,16,0,1.66,0,3.3,0,4.95,0,3,0,6.18,0,9.29a2.71,2.71,0,0,0,.24,1.55,2.33,2.33,0,0,0,1.49.25c1,0,2,0,3,0,.65,0,1.32,0,2,0H291.84a3.71,3.71,0,0,0,.47,0,8.47,8.47,0,0,1,2.07.11,8.28,8.28,0,0,0,1.74-.06c1.71-.15,3.82-.33,5.4,1.06a4.25,4.25,0,0,1,1.43,3.15c.17,4.43-4.19,8-8.5,9a26.77,26.77,0,0,1-6.14.39H94c-1.1,0-2.19,0-3.28,0a24.2,24.2,0,0,0-3.65.23,24.07,24.07,0,0,0-.17,3.56c0,69,0,142.58,0,215.91,0,9.13,5,14.14,14.21,14.14,109.49,0,210.8,0,309.71,0,9.15,0,14.2-5,14.2-14.16q0-40.69,0-81.39c0-44.25,0-90,.08-135,0-2.32-.46-2.92-.6-3s-.65-.46-2.46-.27a19.91,19.91,0,0,1-5.15-.07,8.66,8.66,0,0,0-1.35.07c-1.56.15-3.66.34-5.26-1.1a4.51,4.51,0,0,1-1.45-3.5c0-4.08,3.54-7.9,8.15-8.69a29.8,29.8,0,0,1,5.92-.27c1.48.07,1.86-.29,1.89-.32s.36-.43.27-1.93c-.43-6.28-.39-13.45,5.46-19l.42-.44a9.78,9.78,0,0,1,1.12-1.08,3.78,3.78,0,0,1,2.07-.81l.14,0,1.51-.28,1.16,1.11C439,142.21,438.76,144.64,438.65,146.24Z"/><path class="cls-1" d="M434.81,91.32A12.41,12.41,0,0,0,426,88a19.08,19.08,0,0,0-4.14.48,51.63,51.63,0,0,0-9.26,3.16c-11.15,4.81-20.86,11.55-28.9,17.53-30.38,22.55-59.2,49.93-88.14,83.67-11.42,13.34-24.36,29.1-33.1,47.3-1.62,3.39-2.05,3.57-5.59,2.44-9.31-3-18.52-2.15-25.93,2.34s-12.62,12.51-14.33,22.38a43.28,43.28,0,0,0,.48,15.57c.43,2.3.05,3.83-3.2,5.3-2.7,1.23-5.73,1.16-8.94,1.08-.62,0-1.23,0-1.85-.05-.35,0-.71,0-1.06,0-2.18-.14-6.22-.4-8,4.05s1.26,7.48,3.1,9.26l.17.17C208.82,314,223.61,316,233.74,316.57H234c14.14-.26,26-4,36.21-11.37,13.09-9.46,17.46-22,13-37.24-.55-1.87-.46-1.92,1.1-2.61a131.47,131.47,0,0,0,21.52-12.59c19.95-13.95,40.07-31.18,61.53-52.67,18.42-18.46,41.94-43.37,60.39-72.3,4.45-7,8.8-14.69,10.46-23.64C439.12,98.89,437.93,94.33,434.81,91.32ZM292.51,218a504.11,504.11,0,0,1,34.24-39.66c25.92-27.06,48.55-47,71.22-62.75,8.53-5.92,16.32-11,25.27-13.57a8,8,0,0,1,1.63-.33,3.79,3.79,0,0,1,.08.66,29.52,29.52,0,0,1-3.15,8.28c-8.26,16.1-19.19,30-28.8,41.48a560.91,560.91,0,0,1-83.78,81.4c-2.77,2.18-3.34,1.93-5.27-.32a117.44,117.44,0,0,0-11.29-11.34C291.07,220.48,290.85,220.18,292.51,218Zm-20.95,60.55c-.36,6.72-4.62,12.9-12,17.4a47.73,47.73,0,0,1-24.66,7,48.74,48.74,0,0,1-15.55-2.54c10.51-5.18,12.33-9.55,10.74-22.65-1.25-10.31,1.08-16.76,7.56-20.89s16.08-2.83,23.67,3C268.28,265.14,271.92,271.81,271.56,278.59Zm5.24-24.91a1.41,1.41,0,0,1-.38.09,4.65,4.65,0,0,1-2.49-2,3.39,3.39,0,0,1-.77-2.47c2.47-6.58,6.37-12.59,9.83-17.7a.16.16,0,0,1,0-.06,2,2,0,0,1,.31.29l8.07,8.08,3.33,3.32a3,3,0,0,1,.25.27A88.52,88.52,0,0,1,276.8,253.68Z"/><path class="cls-1" d="M110.27,147.3l0,.26c-.34,5-3.45,8.25-8.11,8.44h-.41c-4.52,0-7.8-3-8.39-7.79A8.49,8.49,0,0,1,102,139a8.54,8.54,0,0,1,5.7,2.29,9.29,9.29,0,0,1,2.59,5.75Z"/><path class="cls-1" d="M128.71,153.68a8.18,8.18,0,0,1-5.63,2.39c-.25,0-.5,0-.76,0-4.91-.52-7.91-3.84-7.83-8.68.08-4.64,3-7.7,8-8.41l.42-.06.41.06c4.81.71,7.75,3.73,8.07,8.27A8.26,8.26,0,0,1,128.71,153.68Z"/><path class="cls-1" d="M152.28,147.49v.08c0,5-3.34,8.4-8.25,8.4h0c-4.77,0-7.94-3.2-8.29-8.31l0-.2,0-.21c.39-5.06,3.55-8.19,8.23-8.19h.16C149,139.12,152.28,142.52,152.28,147.49Z"/></svg>